<svg width="24" height="20" viewBox="0 0 24 20" fill="none" xmlns="http://www.w3.org/2000/svg">
<path d="M11.9997 18.9192C10.4235 17.8097 8.59884 17.1027 6.68551 16.8647C5.3285 16.589 3.94596 16.4588 2.56134 16.4762C2.38417 16.4778 2.20845 16.4442 2.04432 16.3775C1.8802 16.3107 1.73091 16.2121 1.60509 16.0874C1.47926 15.9627 1.37939 15.8142 1.31124 15.6507C1.24309 15.4872 1.208 15.3117 1.20801 15.1346L1.23251 2.42606C1.23176 2.08507 1.36088 1.75659 1.59362 1.50738C1.82636 1.25817 2.14526 1.10693 2.48551 1.08439C3.89501 1.05637 5.30335 1.18234 6.68551 1.46006C8.59677 1.70664 10.42 2.41192 11.9997 3.51572M11.9997 18.9192V3.51572M11.9997 18.9192C13.5758 17.8097 15.4005 17.1027 17.3138 16.8647C18.6709 16.589 20.0534 16.4588 21.438 16.4762C21.6152 16.4778 21.7909 16.4442 21.955 16.3775C22.1192 16.3107 22.2684 16.2121 22.3943 16.0874C22.5201 15.9627 22.62 15.8142 22.6881 15.6507C22.7563 15.4872 22.7913 15.3117 22.7913 15.1346L22.7657 2.42606C22.7664 2.08526 22.6375 1.75694 22.405 1.50776C22.1725 1.25858 21.8539 1.10721 21.5138 1.08439C20.1043 1.05637 18.696 1.18234 17.3138 1.46006C15.4026 1.70664 13.5793 2.41192 11.9997 3.51572" stroke="black" stroke-width="1.5" stroke-linecap="round" stroke-linejoin="round"/>
</svg>
